# xmcd
#
# Track frame offsets: 
#        150
#        18585
#        39668
#        57045
#        84331
#        113213
#        137310
#        160350
#        177728
#        204683
#        231106
#        257183
#
# Disc length: 3725 seconds
#
# Revision: 0
# Processed by: cddbd v1.5.2PL0 Copyright (c) Steve Scherf et al.
# Submitted via: ExactAudioCopy v1.2
#
DISCID=a20e8b0c
DTITLE=Lil' Jimmy Reed - Live
DYEAR=2019
DGENRE=Blues
TTITLE0=Going to New York (Live)
TTITLE1=Big Boss Man (Live)
TTITLE2=Honest I Do (Live)
TTITLE3=I'm in Love with You (Live)
TTITLE4=Hoochie Coochie Man (Live)
TTITLE5=How Blue Can You Get? (Live)
TTITLE6=Down in Virginia (Live)
TTITLE7=Rock Me Baby (Live)
TTITLE8=Caress Me Baby (Live)
TTITLE9=Calgary Boogie (Live)
TTITLE10=Tell Me What's on Your Mind (Live)
TTITLE11=Tv Mama (Live)
EXTD=
EXTT0=
EXTT1=
EXTT2=
EXTT3=
EXTT4=
EXTT5=
EXTT6=
EXTT7=
EXTT8=
EXTT9=
EXTT10=
EXTT11=
PLAYORDER=
